<svg id="_0576_brainstorming_session" xmlns="http://www.w3.org/2000/svg" viewBox="0 0 500 500" data-imageid="team-brainstorming-5-1" imageName="Team Brainstorming 5" class="illustrations_image" style="width: 178px;"><defs><style>.cls-1_team-brainstorming-5-1{fill:#fff;}.cls-2_team-brainstorming-5-1{opacity:.46;}.cls-2_team-brainstorming-5-1,.cls-3_team-brainstorming-5-1,.cls-4_team-brainstorming-5-1,.cls-5_team-brainstorming-5-1,.cls-6_team-brainstorming-5-1{fill:none;}.cls-7_team-brainstorming-5-1{fill:#e6e6e6;}.cls-3_team-brainstorming-5-1{opacity:.21;}.cls-4_team-brainstorming-5-1{opacity:.09;}.cls-5_team-brainstorming-5-1{opacity:.6;}.cls-6_team-brainstorming-5-1{opacity:.3;}.cls-8_team-brainstorming-5-1{fill:#24285b;}.cls-9_team-brainstorming-5-1{fill:#000001;}.cls-10_team-brainstorming-5-1{fill:#ffd200;}.cls-11_team-brainstorming-5-1{fill:#68e1fd;}</style></defs><g id="bg_team-brainstorming-5-1"><g class="cls-6_team-brainstorming-5-1"><path class="cls-7_team-brainstorming-5-1" d="m153.47,50.4C107.35,69.22,29.42,100.22,16.96,181.5c-9.32,60.83-4.35,219.85,82.68,259.09,117.23,52.86,318.87,28.37,362.11-88.77,27.74-75.16,34.61-227.04-51.28-272.82-58.24-31.04-158.16-68.96-257-28.61Z"/></g></g><g id="ideas_team-brainstorming-5-1"><rect class="cls-7_team-brainstorming-5-1" x="237.88" y="164.14" width="8.31" height="68.45"/><rect class="cls-7_team-brainstorming-5-1" x="347.66" y="177.38" width="60.98" height="8.31" transform="translate(47.21 439.27) rotate(-63.56)"/><rect class="cls-7_team-brainstorming-5-1" x="298.83" y="276.28" width="8.31" height="89.13" transform="translate(-137.26 351.33) rotate(-50.6)"/><path class="cls-7_team-brainstorming-5-1" d="m343.8,351.05c.49-.62.96-2.19.16-3.78l-7.43,3.72c-1.92-3.83,1.5-6.48,9.76-12.86,4.8-3.71,11.56-8.71,20.1-14.86,14.5-10.44,29.33-20.73,29.48-20.84l4.74,6.83c-21.88,15.19-53.97,38.19-56.8,41.8Z"/><polygon class="cls-7_team-brainstorming-5-1" points="276.09 261.93 273.16 254.16 360.89 221.12 462.8 215.99 463.22 224.29 362.6 229.35 276.09 261.93"/><rect class="cls-7_team-brainstorming-5-1" x="131.83" y="317.88" width="76.83" height="8.31" transform="translate(-145.19 139.86) rotate(-32.13)"/><rect class="cls-7_team-brainstorming-5-1" x="178.11" y="203.91" width="8.31" height="61.9" transform="translate(-109.86 179.71) rotate(-41.49)"/><polygon class="cls-7_team-brainstorming-5-1" points="53.17 272.76 49.14 265.49 127.86 221.86 42.99 157.54 48.01 150.92 143.04 222.95 53.17 272.76"/><rect class="cls-11_team-brainstorming-5-1 targetColor" x="98.96" y="178.84" width="72.98" height="72.98" rx="7.7" ry="7.7" style="fill: rgb(26, 49, 54);"/><rect class="cls-11_team-brainstorming-5-1 targetColor" x="325.25" y="192.46" width="72.98" height="72.98" rx="7.7" ry="7.7" style="fill: rgb(26, 49, 54);"/><g class="cls-4_team-brainstorming-5-1"><rect class="cls-9_team-brainstorming-5-1" x="325.25" y="192.46" width="72.98" height="72.98" rx="7.7" ry="7.7"/></g><rect class="cls-11_team-brainstorming-5-1 targetColor" x="88.78" y="301.61" width="72.98" height="72.98" rx="7.7" ry="7.7" style="fill: rgb(26, 49, 54);"/><g class="cls-5_team-brainstorming-5-1"><rect class="cls-1_team-brainstorming-5-1" x="88.78" y="301.61" width="72.98" height="72.98" rx="7.7" ry="7.7"/></g><rect class="cls-11_team-brainstorming-5-1 targetColor" x="313.45" y="322.34" width="53.59" height="53.59" rx="5.65" ry="5.65" style="fill: rgb(26, 49, 54);"/><rect class="cls-11_team-brainstorming-5-1 targetColor" x="206.32" y="118.52" width="71.44" height="71.44" rx="7.53" ry="7.53" style="fill: rgb(26, 49, 54);"/><g class="cls-2_team-brainstorming-5-1"><rect class="cls-1_team-brainstorming-5-1" x="206.32" y="118.52" width="71.44" height="71.44" rx="7.53" ry="7.53"/></g><rect class="cls-11_team-brainstorming-5-1 targetColor" x="22.53" y="130.04" width="44.69" height="44.69" rx="4.71" ry="4.71" style="fill: rgb(26, 49, 54);"/><g class="cls-2_team-brainstorming-5-1"><rect class="cls-1_team-brainstorming-5-1" x="22.53" y="130.04" width="44.69" height="44.69" rx="4.71" ry="4.71"/></g><rect class="cls-11_team-brainstorming-5-1 targetColor" x="36.09" y="254.05" width="30.14" height="30.14" rx="3.18" ry="3.18" style="fill: rgb(26, 49, 54);"/><g class="cls-4_team-brainstorming-5-1"><rect class="cls-9_team-brainstorming-5-1" x="36.09" y="254.05" width="30.14" height="30.14" rx="3.18" ry="3.18"/></g><rect class="cls-11_team-brainstorming-5-1 targetColor" x="379.82" y="286.54" width="30.14" height="30.14" rx="3.18" ry="3.18" style="fill: rgb(26, 49, 54);"/><g class="cls-5_team-brainstorming-5-1"><rect class="cls-1_team-brainstorming-5-1" x="379.82" y="286.54" width="30.14" height="30.14" rx="3.18" ry="3.18"/></g><rect class="cls-11_team-brainstorming-5-1 targetColor" x="371.49" y="139.16" width="30.14" height="30.14" rx="3.18" ry="3.18" style="fill: rgb(26, 49, 54);"/><g class="cls-5_team-brainstorming-5-1"><rect class="cls-1_team-brainstorming-5-1" x="371.49" y="139.16" width="30.14" height="30.14" rx="3.18" ry="3.18"/></g><rect class="cls-11_team-brainstorming-5-1 targetColor" x="434.94" y="191.12" width="51.46" height="51.46" rx="5.43" ry="5.43" style="fill: rgb(26, 49, 54);"/><rect class="cls-7_team-brainstorming-5-1" x="143.04" y="119.41" width="34.83" height="34.83"/><rect class="cls-7_team-brainstorming-5-1" x="314.14" y="145.86" width="25.91" height="19.25"/></g><g id="bulb_team-brainstorming-5-1"><path class="cls-10_team-brainstorming-5-1" d="m314.34,275.92c0-38.55-31.53-69.74-70.21-69.18-36.92.53-67.25,30.56-68.14,67.47-.46,19.2,6.9,36.66,19.12,49.46,9.9,10.37,15.11,24.34,15.11,38.68v2.37h68.5v-1.75c0-14.6,5.97-28.43,16.13-38.91,12.07-12.45,19.5-29.42,19.5-48.13Z"/><path class="cls-1_team-brainstorming-5-1" d="m226.57,364.84c-1.16,0-2.18-.84-2.37-2.02l-14.46-87.55c-.22-1.31.67-2.55,1.98-2.77,1.32-.22,2.55.67,2.77,1.98l14.46,87.55c.22,1.31-.67,2.55-1.98,2.77-.13.02-.27.03-.4.03Z"/><path class="cls-1_team-brainstorming-5-1" d="m262.66,364.84c-.13,0-.26-.01-.4-.03-1.31-.22-2.2-1.46-1.98-2.77l14.46-87.55c.22-1.31,1.44-2.2,2.77-1.98,1.31.22,2.2,1.46,1.98,2.77l-14.46,87.55c-.2,1.18-1.22,2.02-2.37,2.02Z"/><rect class="cls-8_team-brainstorming-5-1" x="205.96" y="354.06" width="78.39" height="61.87"/><path class="cls-1_team-brainstorming-5-1" d="m252.26,293.05c-3.05,0-6-1.83-8.79-5.45-1.14-1.48-2.23-2.17-3.27-2.09-2.34.22-4.98,3.99-5.9,5.79-.6,1.18-2.05,1.66-3.24,1.05-1.19-.6-1.66-2.05-1.05-3.24.41-.81,4.16-7.88,9.74-8.4,1.91-.18,4.77.36,7.53,3.95,1.34,1.73,3.33,3.76,5.27,3.56,2.23-.23,4.19-3.3,4.69-4.36.57-1.19,2.01-1.7,3.21-1.13,1.2.57,1.71,2,1.14,3.2-.32.67-3.23,6.51-8.52,7.08-.28.03-.55.04-.82.04Z"/><g class="cls-3_team-brainstorming-5-1"><ellipse class="cls-1_team-brainstorming-5-1" cx="269.39" cy="237.94" rx="16.8" ry="21.5" transform="translate(-56.08 390.43) rotate(-66.56)"/></g><path class="cls-8_team-brainstorming-5-1" d="m218.84,415.93h52.63v8.5c0,8.63-7,15.63-15.63,15.63h-21.37c-8.63,0-15.63-7-15.63-15.63v-8.5h0Z"/></g></svg>