<svg xmlns="http://www.w3.org/2000/svg" xmlns:xlink="http://www.w3.org/1999/xlink" width="500" zoomAndPan="magnify" viewBox="0 0 375 375" height="500" preserveAspectRatio="xMidYMid meet" version="1.2">
  <defs>
    <clipPath id="8e1b1bb0a4">
      <path d="M 112.5 74.054688 L 262.5 74.054688 L 262.5 185 L 112.5 185 Z M 112.5 74.054688 "/>
    </clipPath>
    <clipPath id="9c73036804">
      <path d="M 112.5 113 L 262.5 113 L 262.5 224.054688 L 112.5 224.054688 Z M 112.5 113 "/>
    </clipPath>
  </defs>
  <g>
    <g clipPath="url(#8e1b1bb0a4)">
      <path style="stroke:none;fill-rule:evenodd;fill:#ffbd59;fill-opacity:1;" d="M 112.5 160.261719 L 112.5 90.71875 C 112.5 81.511719 119.957031 74.054688 129.167969 74.054688 L 245.832031 74.054688 C 255.042969 74.054688 262.5 81.511719 262.5 90.71875 L 262.5 122.179688 L 245.832031 118.21875 L 245.832031 94.886719 C 245.832031 92.59375 243.957031 90.71875 241.667969 90.71875 L 133.332031 90.71875 C 131.042969 90.71875 129.167969 92.59375 129.167969 94.886719 L 129.167969 145.929688 L 216.667969 167.804688 L 216.667969 184.46875 Z M 112.5 160.261719 "/>
    </g>
    <g clipPath="url(#9c73036804)">
      <path style="stroke:none;fill-rule:evenodd;fill:#00bf63;fill-opacity:1;" d="M 262.5 138.84375 L 262.5 207.386719 C 262.5 216.59375 255.042969 224.054688 245.832031 224.054688 L 129.167969 224.054688 C 119.960938 224.054688 112.5 216.59375 112.5 207.386719 L 112.5 176.929688 L 129.167969 180.886719 L 129.167969 203.21875 C 129.167969 205.511719 131.042969 207.386719 133.332031 207.386719 L 241.667969 207.386719 C 243.957031 207.386719 245.832031 205.511719 245.832031 203.21875 L 245.832031 152.179688 L 158.335938 130.304688 L 158.335938 113.636719 Z M 262.5 138.84375 "/>
    </g>
  </g>
</svg>
